# xmcd
#
# Track frame offsets:
#	150
#	15677
#	28577
#	40430
#	57457
#	70207
#	85735
#	97285
#	111312
#	124965
#
# Disc length: 1855 seconds
#
# Revision: 0
# Processed by: cddbd v1.4PL0 Copyright (c) Steve Scherf et al.
# Submitted via: EasyCDDAExtractor 4.6.0.1
#
DISCID=8f073d0a
DTITLE=BANDA ARAMBUROS - LA FUERZA DE TU AMOR
DYEAR=1998
DGENRE=LATIN
TTITLE0=LA FUERZA DE TU AMOR
TTITLE1=LA PETRITA
TTITLE2=AY MAMA
TTITLE3=CAREL DE LAREDO
TTITLE4=MI POBRE CORAZON
TTITLE5=NUNCA MAS TE BUSCARE
TTITLE6=CREISTE
TTITLE7=REGALO EQUIVOCADO
TTITLE8=DEMASIADO SUAVE
TTITLE9=TENGO QUE REGRESAR
EXTD=
EXTT0=
EXTT1=
EXTT2=
EXTT3=
EXTT4=
EXTT5=
EXTT6=
EXTT7=
EXTT8=
EXTT9=
PLAYORDER=
